# xmcd
#
# Track frame offsets: 
#        150
#        17255
#        38759
#        55541
#        78998
#        98353
#        122733
#        140963
#        162020
#        186100
#        202937
#        221242
#        246522
#
# Disc length: 3543 seconds
#
# Revision: 0
# Processed by: cddbd v1.5.2PL0 Copyright (c) Steve Scherf et al.
# Submitted via: ExactAudioCopy v1.0b4
#
DISCID=a70dd50d
DTITLE=David Dee - Going Fishing
DYEAR=1981
DGENRE=Blues
TTITLE0=Going Fishing
TTITLE1=Get Into You
TTITLE2=Working Blues Man
TTITLE3=Don't Leave Me On Hold
TTITLE4=Back In Your Arms Again
TTITLE5=You Took The ''V'' Out Of Love
TTITLE6=Since I've Been Loving You
TTITLE7=The Two Of Us
TTITLE8=The Blues
TTITLE9=I'm Working On It
TTITLE10=Crying All Night
TTITLE11=It's No Secret
TTITLE12=On Your Way Fishing
EXTD=
EXTT0=
EXTT1=
EXTT2=
EXTT3=
EXTT4=
EXTT5=
EXTT6=
EXTT7=
EXTT8=
EXTT9=
EXTT10=
EXTT11=
EXTT12=
PLAYORDER=
